<svg xmlns="http://www.w3.org/2000/svg" xmlns:xlink="http://www.w3.org/1999/xlink" width="140" zoomAndPan="magnify" viewBox="0 0 104.88 42" height="56" preserveAspectRatio="xMidYMid meet" version="1.0"><defs><g/><clipPath id="a583adabcb"><path d="M 2.773438 2.050781 L 35.394531 2.050781 L 35.394531 38.679688 L 2.773438 38.679688 Z M 2.773438 2.050781 " clip-rule="nonzero"/></clipPath></defs><path fill="#ffd700" d="M 25.394531 20.101562 L 25.394531 34.148438 L 29.914062 36.761719 L 29.914062 17.507812 Z M 25.394531 20.101562 " fill-opacity="1" fill-rule="nonzero"/><path fill="#ffd700" d="M 18.574219 15.804688 L 18.574219 30.207031 L 23.09375 32.820312 L 23.09375 13.210938 Z M 18.574219 15.804688 " fill-opacity="1" fill-rule="nonzero"/><path fill="#ffd700" d="M 11.753906 22.296875 L 11.753906 26.273438 L 16.273438 28.886719 L 16.273438 19.703125 Z M 11.753906 22.296875 " fill-opacity="1" fill-rule="nonzero"/><g clip-path="url(#a583adabcb)"><path fill="#d6bd36" d="M 32.59375 38.921875 C 33.078125 38.921875 33.5625 38.792969 34.003906 38.542969 C 34.886719 38.03125 35.40625 37.125 35.40625 36.105469 L 35.40625 5 C 35.40625 3.980469 34.878906 3.070312 34.003906 2.5625 C 33.121094 2.050781 32.066406 2.050781 31.1875 2.5625 L 4.25 18.113281 C 3.367188 18.625 2.839844 19.53125 2.839844 20.550781 C 2.839844 21.570312 3.367188 22.488281 4.25 22.988281 L 31.1875 38.542969 C 31.628906 38.800781 32.113281 38.921875 32.59375 38.921875 Z M 32.59375 4.34375 C 32.742188 4.34375 32.863281 4.402344 32.925781 4.4375 C 33.019531 4.496094 33.253906 4.660156 33.253906 5.007812 L 33.253906 36.113281 C 33.253906 36.457031 33.027344 36.621094 32.925781 36.683594 C 32.828125 36.742188 32.5625 36.855469 32.265625 36.683594 L 5.328125 21.128906 C 5.035156 20.957031 5 20.679688 5 20.558594 C 5 20.4375 5.035156 20.164062 5.328125 19.988281 L 32.265625 4.429688 C 32.386719 4.367188 32.492188 4.34375 32.59375 4.34375 Z M 32.59375 4.34375 " fill-opacity="1" fill-rule="nonzero"/></g><g fill="#ffd700" fill-opacity="1"><g transform="translate(40.629447, 37.292748)"><g><path d="M 3.15625 -0.65625 L 3.15625 0 L 0.421875 0 L 0.421875 -3.53125 L 3.09375 -3.53125 L 3.09375 -2.875 L 1.234375 -2.875 L 1.234375 -2.109375 L 2.875 -2.109375 L 2.875 -1.46875 L 1.234375 -1.46875 L 1.234375 -0.65625 Z M 3.15625 -0.65625 "/></g></g></g><g fill="#ffd700" fill-opacity="1"><g transform="translate(45.270668, 37.292748)"><g><path d="M 3.65625 -3.53125 L 3.65625 0 L 2.984375 0 L 1.21875 -2.140625 L 1.21875 0 L 0.421875 0 L 0.421875 -3.53125 L 1.09375 -3.53125 L 2.84375 -1.390625 L 2.84375 -3.53125 Z M 3.65625 -3.53125 "/></g></g></g><g fill="#ffd700" fill-opacity="1"><g transform="translate(50.602165, 37.292748)"><g/></g></g><g fill="#ffd700" fill-opacity="1"><g transform="translate(53.288444, 37.292748)"><g><path d="M 1.984375 0.0625 C 1.484375 0.0625 1.09375 -0.078125 0.8125 -0.359375 C 0.53125 -0.640625 0.390625 -1.035156 0.390625 -1.546875 L 0.390625 -3.53125 L 1.203125 -3.53125 L 1.203125 -1.578125 C 1.203125 -0.953125 1.46875 -0.640625 2 -0.640625 C 2.25 -0.640625 2.441406 -0.710938 2.578125 -0.859375 C 2.710938 -1.015625 2.78125 -1.253906 2.78125 -1.578125 L 2.78125 -3.53125 L 3.59375 -3.53125 L 3.59375 -1.546875 C 3.59375 -1.035156 3.453125 -0.640625 3.171875 -0.359375 C 2.890625 -0.078125 2.492188 0.0625 1.984375 0.0625 Z M 1.984375 0.0625 "/></g></g></g><g fill="#ffd700" fill-opacity="1"><g transform="translate(58.519169, 37.292748)"><g><path d="M 2.109375 0.0625 C 1.742188 0.0625 1.414062 -0.015625 1.125 -0.171875 C 0.84375 -0.328125 0.617188 -0.539062 0.453125 -0.8125 C 0.285156 -1.09375 0.203125 -1.410156 0.203125 -1.765625 C 0.203125 -2.117188 0.285156 -2.429688 0.453125 -2.703125 C 0.617188 -2.984375 0.84375 -3.203125 1.125 -3.359375 C 1.414062 -3.515625 1.742188 -3.59375 2.109375 -3.59375 C 2.421875 -3.59375 2.695312 -3.535156 2.9375 -3.421875 C 3.1875 -3.316406 3.394531 -3.164062 3.5625 -2.96875 L 3.046875 -2.484375 C 2.804688 -2.753906 2.507812 -2.890625 2.15625 -2.890625 C 1.9375 -2.890625 1.738281 -2.84375 1.5625 -2.75 C 1.394531 -2.65625 1.265625 -2.519531 1.171875 -2.34375 C 1.078125 -2.175781 1.03125 -1.984375 1.03125 -1.765625 C 1.03125 -1.546875 1.078125 -1.347656 1.171875 -1.171875 C 1.265625 -1.003906 1.394531 -0.875 1.5625 -0.78125 C 1.738281 -0.6875 1.9375 -0.640625 2.15625 -0.640625 C 2.507812 -0.640625 2.804688 -0.78125 3.046875 -1.0625 L 3.5625 -0.5625 C 3.394531 -0.363281 3.1875 -0.207031 2.9375 -0.09375 C 2.6875 0.0078125 2.410156 0.0625 2.109375 0.0625 Z M 2.109375 0.0625 "/></g></g></g><g fill="#ffd700" fill-opacity="1"><g transform="translate(63.472777, 37.292748)"><g><path d="M 1.984375 0.0625 C 1.484375 0.0625 1.09375 -0.078125 0.8125 -0.359375 C 0.53125 -0.640625 0.390625 -1.035156 0.390625 -1.546875 L 0.390625 -3.53125 L 1.203125 -3.53125 L 1.203125 -1.578125 C 1.203125 -0.953125 1.46875 -0.640625 2 -0.640625 C 2.25 -0.640625 2.441406 -0.710938 2.578125 -0.859375 C 2.710938 -1.015625 2.78125 -1.253906 2.78125 -1.578125 L 2.78125 -3.53125 L 3.59375 -3.53125 L 3.59375 -1.546875 C 3.59375 -1.035156 3.453125 -0.640625 3.171875 -0.359375 C 2.890625 -0.078125 2.492188 0.0625 1.984375 0.0625 Z M 1.984375 0.0625 "/></g></g></g><g fill="#ffd700" fill-opacity="1"><g transform="translate(68.703501, 37.292748)"><g><path d="M 3.28125 -0.671875 L 3.28125 0 L 0.1875 0 L 0.1875 -0.53125 L 2.125 -2.859375 L 0.234375 -2.859375 L 0.234375 -3.53125 L 3.203125 -3.53125 L 3.203125 -3 L 1.265625 -0.671875 Z M 3.28125 -0.671875 "/></g></g></g><g fill="#ffd700" fill-opacity="1"><g transform="translate(73.34472, 37.292748)"><g/></g></g><g fill="#ffd700" fill-opacity="1"><g transform="translate(76.030999, 37.292748)"><g><path d="M 2.75 -0.75 L 1.109375 -0.75 L 0.796875 0 L -0.046875 0 L 1.53125 -3.53125 L 2.34375 -3.53125 L 3.921875 0 L 3.0625 0 Z M 2.484375 -1.375 L 1.921875 -2.734375 L 1.375 -1.375 Z M 2.484375 -1.375 "/></g></g></g><g fill="#ffd700" fill-opacity="1"><g transform="translate(81.150873, 37.292748)"><g><path d="M 0.421875 -3.53125 L 1.234375 -3.53125 L 1.234375 -0.671875 L 3.015625 -0.671875 L 3.015625 0 L 0.421875 0 Z M 0.421875 -3.53125 "/></g></g></g><g fill="#ffd700" fill-opacity="1"><g transform="translate(85.454509, 37.292748)"><g><path d="M 1.15625 -2.859375 L 0.015625 -2.859375 L 0.015625 -3.53125 L 3.09375 -3.53125 L 3.09375 -2.859375 L 1.96875 -2.859375 L 1.96875 0 L 1.15625 0 Z M 1.15625 -2.859375 "/></g></g></g><g fill="#ffd700" fill-opacity="1"><g transform="translate(89.828683, 37.292748)"><g><path d="M 0.421875 -3.53125 L 1.234375 -3.53125 L 1.234375 0 L 0.421875 0 Z M 0.421875 -3.53125 "/></g></g></g><g fill="#ffd700" fill-opacity="1"><g transform="translate(92.741696, 37.292748)"><g><path d="M 3.65625 -3.53125 L 3.65625 0 L 2.984375 0 L 1.21875 -2.140625 L 1.21875 0 L 0.421875 0 L 0.421875 -3.53125 L 1.09375 -3.53125 L 2.84375 -1.390625 L 2.84375 -3.53125 Z M 3.65625 -3.53125 "/></g></g></g><g fill="#ffffff" fill-opacity="1"><g transform="translate(40.629447, 14.342178)"><g><path d="M 9.875 0 L 7.765625 0 L 7.015625 -1.8125 L 2.84375 -1.8125 L 2.09375 0 L 0.046875 0 L 4.015625 -9.09375 L 5.890625 -9.09375 Z M 6.234375 -3.65625 L 4.921875 -6.671875 L 3.625 -3.65625 Z M 6.234375 -3.65625 "/></g></g></g><g fill="#ffffff" fill-opacity="1"><g transform="translate(51.617081, 14.342178)"><g><path d="M 8.375 0 L 1.109375 0 L 1.109375 -9.09375 L 3.09375 -9.09375 L 3.09375 -1.90625 L 8.375 -1.90625 Z M 8.375 0 "/></g></g></g><g fill="#ffffff" fill-opacity="1"><g transform="translate(61.318934, 14.342178)"><g><path d="M 5.5625 0 L 3.578125 0 L 3.578125 -7.1875 L 0.34375 -7.1875 L 0.34375 -9.09375 L 8.796875 -9.09375 L 8.796875 -7.1875 L 5.5625 -7.1875 Z M 5.5625 0 "/></g></g></g><g fill="#ffffff" fill-opacity="1"><g transform="translate(71.527308, 14.342178)"><g><path d="M 3.09375 0 L 1.109375 0 L 1.109375 -9.09375 L 3.09375 -9.09375 Z M 3.09375 0 "/></g></g></g><g fill="#ffffff" fill-opacity="1"><g transform="translate(76.800352, 14.342178)"><g><path d="M 7.875 -3 L 7.875 -9.09375 L 9.78125 -9.09375 L 9.78125 0 L 8 0 L 3.03125 -6.09375 L 3.03125 0 L 1.109375 0 L 1.109375 -9.09375 L 2.890625 -9.09375 Z M 7.875 -3 "/></g></g></g><g fill="#ffffff" fill-opacity="1"><g transform="translate(40.629447, 27.735734)"><g><path d="M 6.484375 -2.5 L 10.171875 -9.09375 L 11.765625 -9.09375 L 11.765625 0 L 9.859375 0 L 9.859375 -5.171875 L 6.875 0 L 5.953125 0 L 3.03125 -5.078125 L 3.03125 0 L 1.109375 0 L 1.109375 -9.09375 L 2.765625 -9.09375 Z M 6.484375 -2.5 "/></g></g></g><g fill="#ffffff" fill-opacity="1"><g transform="translate(54.578283, 27.735734)"><g><path d="M 3.09375 -3.71875 L 3.09375 -1.828125 L 8.5 -1.828125 L 8.5 0 L 1.109375 0 L 1.109375 -9.09375 L 8.375 -9.09375 L 8.375 -7.265625 L 3.09375 -7.265625 L 3.09375 -5.5 L 7.796875 -5.5 L 7.796875 -3.71875 Z M 3.09375 -3.71875 "/></g></g></g><g fill="#ffffff" fill-opacity="1"><g transform="translate(64.877569, 27.735734)"><g><path d="M 5.5625 0 L 3.578125 0 L 3.578125 -7.1875 L 0.34375 -7.1875 L 0.34375 -9.09375 L 8.796875 -9.09375 L 8.796875 -7.1875 L 5.5625 -7.1875 Z M 5.5625 0 "/></g></g></g><g fill="#ffffff" fill-opacity="1"><g transform="translate(75.085943, 27.735734)"><g><path d="M 7.15625 0 L 5.0625 -3.125 L 3.09375 -3.125 L 3.09375 0 L 1.109375 0 L 1.109375 -9.09375 L 5.625 -9.09375 C 6.320312 -9.09375 6.925781 -8.96875 7.4375 -8.71875 C 7.957031 -8.46875 8.351562 -8.117188 8.625 -7.671875 C 8.90625 -7.234375 9.046875 -6.722656 9.046875 -6.140625 C 9.046875 -5.484375 8.875 -4.914062 8.53125 -4.4375 C 8.195312 -3.957031 7.71875 -3.601562 7.09375 -3.375 L 9.40625 0 Z M 3.09375 -7.1875 L 3.09375 -4.953125 L 5.71875 -4.953125 C 6.144531 -4.953125 6.476562 -5.054688 6.71875 -5.265625 C 6.957031 -5.472656 7.078125 -5.742188 7.078125 -6.078125 C 7.078125 -6.398438 6.957031 -6.664062 6.71875 -6.875 C 6.476562 -7.082031 6.144531 -7.1875 5.71875 -7.1875 Z M 3.09375 -7.1875 "/></g></g></g><g fill="#ffffff" fill-opacity="1"><g transform="translate(86.021628, 27.735734)"><g><path d="M 3.09375 -3.71875 L 3.09375 -1.828125 L 8.5 -1.828125 L 8.5 0 L 1.109375 0 L 1.109375 -9.09375 L 8.375 -9.09375 L 8.375 -7.265625 L 3.09375 -7.265625 L 3.09375 -5.5 L 7.796875 -5.5 L 7.796875 -3.71875 Z M 3.09375 -3.71875 "/></g></g></g></svg>